<svg width="24" height="24" viewBox="0 0 24 24" fill="none" xmlns="http://www.w3.org/2000/svg">
<circle cx="12" cy="12" r="12" fill="#8BEB84"/>
<path d="M10.5 13.4L15.4 8.50001C15.5834 8.31667 15.8167 8.22501 16.1001 8.22501C16.3834 8.22501 16.6167 8.31667 16.8 8.50001C16.9834 8.68334 17.0751 8.91667 17.0751 9.20001C17.0751 9.48334 16.9834 9.71667 16.8 9.90001L11.2 15.5C11 15.7 10.7667 15.8 10.5 15.8C10.2334 15.8 10 15.7 9.80005 15.5L7.20005 12.9C7.01672 12.7167 6.92505 12.4833 6.92505 12.2C6.92505 11.9167 7.01672 11.6833 7.20005 11.5C7.38338 11.3167 7.61672 11.225 7.90005 11.225C8.18338 11.225 8.41672 11.3167 8.60005 11.5L10.5 13.4Z" fill="black"/>
</svg>
